<svg xmlns="http://www.w3.org/2000/svg" version="1.1" width="256" height="256" viewBox="0 0 67.7 67.7" color="#040080">
	<path fill="currentColor"
		d="m37.3 0.529c-7.16 0-12.8 1.95-16.9 5.85-4.09 3.88-6.14 9.18-6.14 15.9 0 3.67 0.551 6.89 1.65 9.64 1.1 2.73 2.67 5.01 4.69 6.84 2.01 1.81 4.44 3.16 7.29 4.07 2.85 0.904 5.99 1.36 9.41 1.36 2.66 0 5.4-0.386 8.23-1.16 0.581-0.161 1.15-0.33 1.71-0.502v10.3c0 1.51-0.0828 2.84-0.249 3.99-0.321 1.11-1.76 2.34-2.45 2.92-0.891 0.775-2.77 1.37-3.91 1.79-1.12 0.417-4.03 0.625-5.94 0.625-1.31 0-3.98-0.149-5.22-0.447-1.24-0.298-3.68-0.586-4.54-0.864h-0.342v5.51c1.12 0.238 3.9 0.437 5.56 0.596 1.66 0.179 4.38 0.268 5.38 0.268 4.17 0 10.3-1.05 12.7-3.16 2.89-2.32 5.13-5.11 5.13-9v-14.8c1e-3 -3.35e-4 0.0017-9.85e-4 0.0028-9.85e-4v-18.1h-0.0028v-6.71e-4c-5.78-9.36e-4 -11.9 9.04e-4 -17.6 6.71e-4v4.92h11.4v10.5c-1.33 0.5-2.85 0.918-4.58 1.25-1.87 0.358-3.75 0.537-5.64 0.537-5.15 0-9.23-1.51-12.2-4.52-2.99-3.03-4.49-7.27-4.49-12.7 0-5.16 1.43-9.25 4.28-12.3 2.87-3.03 6.77-4.55 11.7-4.55 2.18 0 4.13 0.198 5.84 0.594 1.73 0.377 3.28 0.857 4.63 1.44 1.12 0.49 2.26 1.1 3.42 1.84 1.16 0.735 2.05 1.33 2.66 1.78h0.531v-6.64c-3.01-1.38-5.82-2.35-8.44-2.91-2.6-0.584-5.14-0.876-7.64-0.876z" />
</svg>